<svg version="1.1" id="Layer_1" xmlns="http://www.w3.org/2000/svg" x="0" y="0" viewBox="0 0 1920 1080" xml:space="preserve"><style>.st0{fill:#fff;stroke:#1c1c1c;stroke-width:17.1339;stroke-linecap:square;stroke-linejoin:round;stroke-miterlimit:10}</style><path class="st0" d="M1082.03 546.07l47.63 24.94-117.05 67.51-46.75 27.28-45.78-26.46.14-167.29 189.02-108.9 47.63 27.62-144.06 82.92L966 500.7l-.07 112.05 46.74-27.21z"/><path class="st0" d="M1157.83 445.25l-145.09 85.26-.07 55.03-46.74 27.21.07-112.05 46.81-27.01 144.06-82.92zM965.79 720.89l46.79-27.26-.12 110.43L965.67 831z"/><path class="st0" d="M1129.66 571.01l-.06 55.04-116.99 67.57-46.81 27.28-.14 110.07-45.78-28.58.2-163.05 45.78 26.46 46.75-27.28zM1274.12 500.13v56.27l-48.73 28.1-1.58-.89-47.08-27.21v-56.27l48.66-28.1 47.15 27.21z"/><path class="st0" d="M1274.12 500.13l-48.73 28.17-1.58-.89v-.07l-47.08-27.21 48.66-28.1 47.15 27.21z"/><path class="st0" d="M1274.12 500.13v56.27l-48.73 28.1-1.58-.89v-56.27l48.73-28.1z"/></svg>